# xmcd
#
# Track frame offsets:
#	150
#	14027
#	28444
#	42589
#	58384
#	75525
#	94674
#	107883
#	126669
#
# Disc length: 1904 seconds
#
# Revision: 0
# Processed by: cddbd v1.5.2PL0 Copyright (c) Steve Scherf et al.
# Submitted via: EasyCDDAExtractor 15.3.0.1
#
DISCID=87076e09
DTITLE=Belles and Whistles
DYEAR=2012
DGENRE=country
TTITLE0=Boy Like You
TTITLE1=All I Need
TTITLE2=Whisper My Name
TTITLE3=18 and Free
TTITLE4=Rain
TTITLE5=Right Side of Dirt
TTITLE6=Common Woman
TTITLE7=Shepherd
TTITLE8=River/White Christmas
EXTD=
EXTT0=
EXTT1=
EXTT2=
EXTT3=
EXTT4=
EXTT5=
EXTT6=
EXTT7=
EXTT8=
PLAYORDER=
